Complete name : c:Pieta.2012.DVDRip.AC3.x264-theonlyh.mkv
Format : Matroska
Format version : Version 2
File size : 1.32 GiB
Duration : 1h 42mn
Overall bit rate : 1 844 Kbps
Writing application : HandBrake 0.9.8
Writing library : libmkv 0.6.5
Video #1
ID : 1
Format : AVC
Format/Info : Advanced Video Codec
Format profile : High@L3.0
Format settings, CABAC : Yes
Format settings, ReFrames : 4 frames
Codec ID : V_MPEG4/ISO/AVC
Duration : 1h 42mn
Bit rate : 1 400 Kbps
Width : 720 pixels
Height : 400 pixels
Display aspect ratio : 1.85:1
Original display aspect ratio : 1.85:1
Frame rate mode : Variable / Variable
Frame rate : 23.976 fps
Color space : YUV
Chroma subsampling : 4:2:0
Bit depth : 8 bits
Scan type : Progressive
Bits/(Pixel*Frame) : 0.203
Stream size : 999 MiB (74%)
Writing library : x264 core 120

Language : English
Default : Yes
Forced : No

Audio #2
ID : 2
Format : AC-3
Format/Info : Audio Coding 3
Mode extension : CM (complete main)
Format settings, Endianness : Big
Codec ID : A_AC3
Duration : 1h 42mn
Bit rate mode : Constant
Bit rate : 448 Kbps
Channel(s) : 6 channels
Channel positions : Front: L C R, Side: L R, LFE
Sampling rate : 48.0 KHz
Bit depth : 16 bits
Compression mode : Lossy
Stream size : 329 MiB (24%)
Language : Korean
Default : Yes
Forced : No
Text #3
ID : 3
Format : VobSub
Codec ID : S_VOBSUB
Codec ID/Info : The same subtitle format used on DVDs
Language : English
Default : No
Forced : No
Text #4
ID : 4
Format : VobSub
Codec ID : S_VOBSUB
Codec ID/Info : The same subtitle format used on DVDs
Language : Korean
Default : No
Forced : No